<mxfile host="Electron" modified="2023-08-28T02:00:07.511Z" agent="Mozilla/5.0 (Windows NT 10.0; Win64; x64) AppleWebKit/537.36 (KHTML, like Gecko) draw.io/21.6.8 Chrome/114.0.5735.289 Electron/25.5.0 Safari/537.36" etag="v7idbV_A7TinHgV83Y_w" version="21.6.8" type="device">
  <diagram name="Page-1" id="_QQmcSKGJUw1K3zRHFVN">
    <mxGraphModel dx="1154" dy="528" grid="1" gridSize="10" guides="1" tooltips="1" connect="1" arrows="1" fold="1" page="1" pageScale="1" pageWidth="827" pageHeight="1169" math="0" shadow="0">
      <root>
        <mxCell id="0" />
        <mxCell id="1" parent="0" />
        <mxCell id="td33pQiQXppunVpRKrVb-76" value="" style="rounded=0;whiteSpace=wrap;html=1;" vertex="1" parent="1">
          <mxGeometry x="20" y="40" width="750" height="480" as="geometry" />
        </mxCell>
        <mxCell id="td33pQiQXppunVpRKrVb-48" value="người dùng" style="shape=umlActor;verticalLabelPosition=bottom;verticalAlign=top;html=1;outlineConnect=0;" vertex="1" parent="1">
          <mxGeometry x="40" y="260" width="30" height="60" as="geometry" />
        </mxCell>
        <mxCell id="td33pQiQXppunVpRKrVb-49" value="" style="ellipse;whiteSpace=wrap;html=1;aspect=fixed;" vertex="1" parent="1">
          <mxGeometry x="240" y="275" width="30" height="30" as="geometry" />
        </mxCell>
        <mxCell id="td33pQiQXppunVpRKrVb-50" value="" style="endArrow=classic;html=1;rounded=0;entryX=0;entryY=0.5;entryDx=0;entryDy=0;" edge="1" parent="1" target="td33pQiQXppunVpRKrVb-49">
          <mxGeometry relative="1" as="geometry">
            <mxPoint x="80" y="289.62" as="sourcePoint" />
            <mxPoint x="180" y="289.62" as="targetPoint" />
          </mxGeometry>
        </mxCell>
        <mxCell id="td33pQiQXppunVpRKrVb-51" value="truy cập trang đăng nhập" style="edgeLabel;resizable=0;html=1;align=center;verticalAlign=middle;" connectable="0" vertex="1" parent="td33pQiQXppunVpRKrVb-50">
          <mxGeometry relative="1" as="geometry" />
        </mxCell>
        <mxCell id="td33pQiQXppunVpRKrVb-54" value="trang đăng nhập, đăng ký" style="text;html=1;align=center;verticalAlign=middle;resizable=0;points=[];autosize=1;strokeColor=none;fillColor=none;" vertex="1" parent="1">
          <mxGeometry x="270" y="275" width="150" height="30" as="geometry" />
        </mxCell>
        <mxCell id="td33pQiQXppunVpRKrVb-56" value="" style="ellipse;whiteSpace=wrap;html=1;aspect=fixed;" vertex="1" parent="1">
          <mxGeometry x="360" y="120" width="30" height="30" as="geometry" />
        </mxCell>
        <mxCell id="td33pQiQXppunVpRKrVb-57" value="" style="ellipse;whiteSpace=wrap;html=1;aspect=fixed;" vertex="1" parent="1">
          <mxGeometry x="360" y="410" width="30" height="30" as="geometry" />
        </mxCell>
        <mxCell id="td33pQiQXppunVpRKrVb-58" value="" style="ellipse;whiteSpace=wrap;html=1;aspect=fixed;" vertex="1" parent="1">
          <mxGeometry x="600" y="120" width="30" height="30" as="geometry" />
        </mxCell>
        <mxCell id="td33pQiQXppunVpRKrVb-59" value="" style="ellipse;whiteSpace=wrap;html=1;aspect=fixed;" vertex="1" parent="1">
          <mxGeometry x="600" y="410" width="30" height="30" as="geometry" />
        </mxCell>
        <mxCell id="td33pQiQXppunVpRKrVb-60" value="" style="ellipse;whiteSpace=wrap;html=1;aspect=fixed;" vertex="1" parent="1">
          <mxGeometry x="600" y="275" width="30" height="30" as="geometry" />
        </mxCell>
        <mxCell id="td33pQiQXppunVpRKrVb-63" value="" style="endArrow=classic;html=1;rounded=0;entryX=0;entryY=1;entryDx=0;entryDy=0;exitX=0.774;exitY=0.048;exitDx=0;exitDy=0;exitPerimeter=0;" edge="1" parent="1" source="td33pQiQXppunVpRKrVb-49" target="td33pQiQXppunVpRKrVb-56">
          <mxGeometry width="50" height="50" relative="1" as="geometry">
            <mxPoint x="260" y="270" as="sourcePoint" />
            <mxPoint x="470" y="260" as="targetPoint" />
          </mxGeometry>
        </mxCell>
        <mxCell id="td33pQiQXppunVpRKrVb-64" value="" style="endArrow=classic;html=1;rounded=0;exitX=1;exitY=1;exitDx=0;exitDy=0;entryX=0;entryY=0;entryDx=0;entryDy=0;" edge="1" parent="1" source="td33pQiQXppunVpRKrVb-49" target="td33pQiQXppunVpRKrVb-57">
          <mxGeometry width="50" height="50" relative="1" as="geometry">
            <mxPoint x="470" y="350" as="sourcePoint" />
            <mxPoint x="520" y="300" as="targetPoint" />
          </mxGeometry>
        </mxCell>
        <mxCell id="td33pQiQXppunVpRKrVb-65" value="" style="endArrow=classic;html=1;rounded=0;exitX=1;exitY=0.5;exitDx=0;exitDy=0;entryX=0;entryY=0.5;entryDx=0;entryDy=0;" edge="1" parent="1" source="td33pQiQXppunVpRKrVb-56" target="td33pQiQXppunVpRKrVb-58">
          <mxGeometry width="50" height="50" relative="1" as="geometry">
            <mxPoint x="470" y="350" as="sourcePoint" />
            <mxPoint x="520" y="300" as="targetPoint" />
          </mxGeometry>
        </mxCell>
        <mxCell id="td33pQiQXppunVpRKrVb-66" value="" style="endArrow=classic;html=1;rounded=0;exitX=1;exitY=0.5;exitDx=0;exitDy=0;entryX=0;entryY=0.5;entryDx=0;entryDy=0;" edge="1" parent="1" source="td33pQiQXppunVpRKrVb-57" target="td33pQiQXppunVpRKrVb-59">
          <mxGeometry width="50" height="50" relative="1" as="geometry">
            <mxPoint x="420" y="327" as="sourcePoint" />
            <mxPoint x="518" y="440" as="targetPoint" />
          </mxGeometry>
        </mxCell>
        <mxCell id="td33pQiQXppunVpRKrVb-67" value="" style="endArrow=classic;html=1;rounded=0;exitX=0.5;exitY=1;exitDx=0;exitDy=0;entryX=0.5;entryY=0;entryDx=0;entryDy=0;" edge="1" parent="1" source="td33pQiQXppunVpRKrVb-58" target="td33pQiQXppunVpRKrVb-60">
          <mxGeometry width="50" height="50" relative="1" as="geometry">
            <mxPoint x="500" y="275" as="sourcePoint" />
            <mxPoint x="598" y="388" as="targetPoint" />
          </mxGeometry>
        </mxCell>
        <mxCell id="td33pQiQXppunVpRKrVb-68" value="" style="endArrow=classic;html=1;rounded=0;exitX=0.5;exitY=0;exitDx=0;exitDy=0;entryX=0.5;entryY=1;entryDx=0;entryDy=0;" edge="1" parent="1" source="td33pQiQXppunVpRKrVb-59" target="td33pQiQXppunVpRKrVb-60">
          <mxGeometry width="50" height="50" relative="1" as="geometry">
            <mxPoint x="620" y="410" as="sourcePoint" />
            <mxPoint x="718" y="523" as="targetPoint" />
          </mxGeometry>
        </mxCell>
        <mxCell id="td33pQiQXppunVpRKrVb-69" value="đã có tài khoản" style="text;html=1;align=center;verticalAlign=middle;resizable=0;points=[];autosize=1;strokeColor=none;fillColor=none;" vertex="1" parent="1">
          <mxGeometry x="325" y="90" width="100" height="30" as="geometry" />
        </mxCell>
        <mxCell id="td33pQiQXppunVpRKrVb-70" value="chưa có tài khoản" style="text;html=1;align=center;verticalAlign=middle;resizable=0;points=[];autosize=1;strokeColor=none;fillColor=none;" vertex="1" parent="1">
          <mxGeometry x="315" y="440" width="120" height="30" as="geometry" />
        </mxCell>
        <mxCell id="td33pQiQXppunVpRKrVb-71" value="trang đăng nhập" style="text;html=1;align=center;verticalAlign=middle;resizable=0;points=[];autosize=1;strokeColor=none;fillColor=none;" vertex="1" parent="1">
          <mxGeometry x="560" y="90" width="110" height="30" as="geometry" />
        </mxCell>
        <mxCell id="td33pQiQXppunVpRKrVb-72" value="trang đăng kí" style="text;html=1;align=center;verticalAlign=middle;resizable=0;points=[];autosize=1;strokeColor=none;fillColor=none;" vertex="1" parent="1">
          <mxGeometry x="570" y="440" width="90" height="30" as="geometry" />
        </mxCell>
        <mxCell id="td33pQiQXppunVpRKrVb-73" value="trang chủ" style="text;html=1;align=center;verticalAlign=middle;resizable=0;points=[];autosize=1;strokeColor=none;fillColor=none;" vertex="1" parent="1">
          <mxGeometry x="630" y="275" width="70" height="30" as="geometry" />
        </mxCell>
        <mxCell id="td33pQiQXppunVpRKrVb-74" value="đăng nhập thành công" style="text;html=1;align=center;verticalAlign=middle;resizable=0;points=[];autosize=1;strokeColor=none;fillColor=none;" vertex="1" parent="1">
          <mxGeometry x="610" y="200" width="140" height="30" as="geometry" />
        </mxCell>
        <mxCell id="td33pQiQXppunVpRKrVb-75" value="đăng kí thành công" style="text;html=1;align=center;verticalAlign=middle;resizable=0;points=[];autosize=1;strokeColor=none;fillColor=none;" vertex="1" parent="1">
          <mxGeometry x="620" y="350" width="120" height="30" as="geometry" />
        </mxCell>
        <mxCell id="td33pQiQXppunVpRKrVb-77" value="đăng nhập, đăng kí" style="text;html=1;align=center;verticalAlign=middle;resizable=0;points=[];autosize=1;strokeColor=none;fillColor=none;" vertex="1" parent="1">
          <mxGeometry x="20" y="40" width="120" height="30" as="geometry" />
        </mxCell>
      </root>
    </mxGraphModel>
  </diagram>
</mxfile>
